<?xml version="1.0" encoding="utf-8"?>
<!-- Generator: Adobe Illustrator 21.1.0, SVG Export Plug-In . SVG Version: 6.00 Build 0)  -->
<svg version="1.1" id="Capa_1" xmlns="http://www.w3.org/2000/svg" xmlns:xlink="http://www.w3.org/1999/xlink" x="0px" y="0px"
	 viewBox="0 0 512.3 512.3" style="enable-background:new 0 0 512.3 512.3;" xml:space="preserve">
<style type="text/css">
	.st0{fill:#FFFFFF;}
	.st1{fill:#0060F9;}
</style>
<path class="st0" d="M250.1,159.8c1.6,1.6,3.8,2.4,6.1,2.5c0.5,0,1.1-0.1,1.6-0.2c0.6-0.1,1.1-0.3,1.6-0.5c0.5-0.2,1-0.4,1.5-0.8
	c0.5-0.3,0.9-0.7,1.4-1c0.8-0.8,1.4-1.8,1.8-2.8c0.4-1,0.7-2.1,0.7-3.2c0-2.3-0.9-4.4-2.5-6.1c-0.4-0.3-0.9-0.7-1.4-1
	c-0.4-0.3-0.9-0.6-1.5-0.8c-0.5-0.3-1.1-0.4-1.6-0.5c-2.8-0.5-5.6,0.3-7.7,2.3c-0.4,0.4-0.7,0.8-1,1.3c-0.3,0.5-0.6,1-0.8,1.5
	c-0.2,0.5-0.4,1-0.5,1.5c-0.1,0.6-0.2,1.1-0.2,1.7c0,1.1,0.2,2.2,0.7,3.2C248.8,158,249.4,159,250.1,159.8z"/>
<path class="st0" d="M262.2,352.5c-0.4-0.3-0.9-0.7-1.4-1c-0.4-0.3-0.9-0.6-1.5-0.8c-0.5-0.3-1.1-0.4-1.6-0.5
	c-2.8-0.6-5.7,0.3-7.7,2.3c-0.8,0.8-1.4,1.8-1.8,2.8c-0.4,1-0.7,2.1-0.7,3.2c0,0.6,0.1,1.1,0.2,1.7c0.1,0.5,0.3,1.1,0.5,1.5
	c0.2,0.5,0.4,1.1,0.8,1.5c0.3,0.4,0.7,0.9,1,1.3c1.6,1.6,3.8,2.4,6.1,2.5c0.5,0,1.1-0.1,1.6-0.2c0.6-0.1,1.1-0.3,1.6-0.5
	c0.5-0.2,1-0.4,1.5-0.8c0.5-0.3,0.9-0.7,1.4-1c1.6-1.6,2.5-3.8,2.5-6.1c0-1.1-0.2-2.2-0.7-3.2C263.6,354.2,263,353.3,262.2,352.5z"
	/>
<path class="st0" d="M221.2,168.4L221.2,168.4c2.2,0,4.4-0.9,6-2.5c0.4-0.4,0.8-0.8,1.1-1.3c0.3-0.5,0.5-0.9,0.8-1.4
	c0.2-0.5,0.3-1.1,0.5-1.6c0.1-0.6,0.2-1.1,0.2-1.7c0-2.3-0.9-4.4-2.6-6c-0.4-0.4-0.8-0.8-1.3-1.1c-0.4-0.3-0.9-0.5-1.4-0.8
	c-0.5-0.2-1.1-0.3-1.6-0.5c-2.8-0.5-5.7,0.4-7.7,2.4c-2.4,2.4-3.2,6.1-1.8,9.3C214.6,166.4,217.8,168.4,221.2,168.4z"/>
<path class="st0" d="M297.2,346.3c-0.4-0.4-0.8-0.8-1.3-1.1c-0.5-0.3-0.9-0.5-1.5-0.8c-0.5-0.2-1.1-0.3-1.6-0.4
	c-1.1-0.3-2.2-0.3-3.3,0c-0.6,0.1-1.1,0.2-1.6,0.4c-0.5,0.3-1,0.5-1.5,0.8c-0.5,0.3-0.9,0.7-1.3,1.1c-0.8,0.8-1.5,1.7-1.9,2.7
	c-0.4,1.1-0.7,2.2-0.7,3.3c0,2.3,0.9,4.4,2.6,6c0.4,0.4,0.8,0.8,1.3,1.1c0.4,0.3,0.9,0.5,1.5,0.8c0.5,0.2,1.1,0.4,1.6,0.5
	c0.5,0.1,1.1,0.2,1.6,0.2c0.6,0,1.1-0.1,1.7-0.2c0.6-0.1,1.1-0.3,1.6-0.5c0.5-0.3,0.9-0.5,1.5-0.8c0.5-0.3,0.9-0.7,1.3-1.1
	c1.6-1.6,2.5-3.7,2.5-6c0-1.1-0.2-2.3-0.6-3.3C298.7,348,298,347.1,297.2,346.3z"/>
<path class="st0" d="M182.5,180.9c0.3,0.5,0.5,1,0.8,1.4c0.3,0.5,0.7,0.9,1.1,1.4c0.8,0.8,1.7,1.4,2.7,1.8c1.1,0.4,2.2,0.7,3.3,0.7
	c2.2,0,4.4-0.9,6-2.5c0.4-0.4,0.8-0.9,1.1-1.4c0.2-0.4,0.5-0.9,0.8-1.4c0.2-0.5,0.3-1,0.5-1.6c0.1-0.5,0.2-1.1,0.2-1.6
	c0-0.6-0.1-1.1-0.2-1.7c-0.2-0.5-0.3-1.1-0.5-1.6c-0.3-0.5-0.5-0.9-0.8-1.4c-0.3-0.4-0.7-0.9-1.1-1.3c-0.8-0.8-1.7-1.4-2.7-1.9
	c-2.1-0.9-4.5-0.9-6.6,0c-1,0.5-1.9,1.1-2.7,1.9c-0.4,0.4-0.8,0.8-1.1,1.3c-0.3,0.5-0.5,0.9-0.8,1.4c-0.2,0.5-0.3,1.1-0.5,1.6
	c-0.1,0.6-0.2,1.1-0.2,1.7c0,0.5,0.1,1.1,0.2,1.6C182.1,179.9,182.3,180.4,182.5,180.9z"/>
<path class="st0" d="M326.8,327.5c-0.5-0.3-0.9-0.5-1.5-0.8c-0.5-0.2-1.1-0.4-1.6-0.5c-2.5-0.5-5.1,0.2-7.1,1.8
	c-2,1.6-3.1,4-3.2,6.6c0,1.1,0.3,2.3,0.7,3.3c0.4,1,1.1,2,1.9,2.7c1.6,1.6,3.7,2.5,6,2.5c0.6,0,1.2,0,1.7-0.2
	c0.5-0.1,1.1-0.2,1.6-0.4c0.5-0.2,1-0.5,1.5-0.9c0.5-0.3,0.9-0.6,1.3-1c0.8-0.8,1.4-1.7,1.9-2.7c0.4-1.1,0.6-2.2,0.6-3.3
	c0-2.3-0.9-4.4-2.5-6.1C327.6,328.1,327.2,327.8,326.8,327.5z"/>
<path class="st0" d="M161.5,198.9c-1.6,1.6-2.5,3.8-2.5,6.1c0,1.1,0.2,2.2,0.6,3.2c0.5,1,1.1,2,1.9,2.8c1.6,1.6,3.8,2.5,6.1,2.5
	c3.4,0,6.5-2.1,7.9-5.3c0.4-1,0.7-2.1,0.7-3.2c0-2.3-0.9-4.5-2.6-6.1C170.1,195.7,164.9,195.7,161.5,198.9z"/>
<path class="st0" d="M350.9,301.3c-2-2-4.9-2.9-7.7-2.3c-0.6,0.1-1.1,0.2-1.6,0.5c-0.5,0.2-1,0.4-1.5,0.8c-0.5,0.3-0.9,0.6-1.3,1
	c-1.6,1.6-2.5,3.8-2.5,6.1s0.9,4.5,2.5,6.1c0.4,0.4,0.8,0.8,1.3,1c0.4,0.3,0.9,0.6,1.5,0.8c0.5,0.3,1.1,0.4,1.6,0.5
	c0.5,0.1,1.1,0.2,1.6,0.2c2.3,0,4.4-0.9,6.1-2.5c0.8-0.8,1.4-1.8,1.8-2.8c0.9-2.1,0.9-4.4,0-6.5C352.3,303,351.7,302.1,350.9,301.3z
	"/>
<path class="st0" d="M155.3,246.9L155.3,246.9c2.3,0,4.5-0.9,6.1-2.6c1.6-1.6,2.5-3.7,2.5-6c0-1.1-0.2-2.3-0.7-3.3
	c-0.4-1-1-1.9-1.8-2.7c-3.4-3.2-8.6-3.2-12,0c-0.8,0.8-1.5,1.7-1.9,2.7c-0.4,1.1-0.7,2.2-0.7,3.3C146.9,243,150.7,246.8,155.3,246.9
	z"/>
<path class="st0" d="M364.9,270.6c-0.2-0.5-0.4-1-0.8-1.5c-0.3-0.5-0.7-0.9-1.1-1.3c-2-2-4.9-2.9-7.7-2.4c-0.5,0.2-1.1,0.3-1.6,0.5
	c-0.5,0.3-0.9,0.5-1.5,0.8c-0.4,0.3-0.9,0.7-1.3,1.1c-1.6,1.6-2.5,3.7-2.5,6c0,0.6,0,1.2,0.2,1.7c0.1,0.5,0.2,1.1,0.4,1.6
	c0.2,0.5,0.5,1,0.9,1.5c0.3,0.5,0.6,0.9,1,1.3c0.4,0.4,0.8,0.8,1.3,1.1c0.5,0.3,0.9,0.5,1.5,0.8c0.5,0.2,1.1,0.3,1.6,0.4
	c0.6,0.1,1.1,0.2,1.7,0.2c2.2,0,4.4-0.9,6-2.5c0.4-0.4,0.8-0.8,1.1-1.3c0.3-0.4,0.6-0.9,0.8-1.5c0.2-0.5,0.4-1.1,0.5-1.6
	c0.1-0.6,0.2-1.1,0.2-1.7c0-0.5-0.1-1.1-0.2-1.6C365.3,271.7,365.2,271.1,364.9,270.6z"/>
<path class="st0" d="M161.4,279.9c0.8-0.8,1.4-1.7,1.8-2.7c0.5-1,0.7-2.2,0.7-3.3c0-2.2-0.9-4.4-2.5-6c-3.4-3.2-8.7-3.2-12,0
	c-1.6,1.6-2.5,3.7-2.6,6c0,1.1,0.2,2.3,0.7,3.3c0.4,1,1.1,2,1.9,2.7c1.6,1.6,3.7,2.5,6,2.5c0.6,0,1.1,0,1.7-0.2
	c0.5-0.1,1-0.2,1.5-0.4c0.5-0.3,1-0.5,1.5-0.8C160.6,280.7,161,280.3,161.4,279.9z"/>
<path class="st0" d="M351,232.3c-1.6,1.6-2.5,3.8-2.5,6.1c0,0.5,0,1.1,0.2,1.6c0.1,0.6,0.2,1.1,0.4,1.6c0.2,0.5,0.5,1,0.9,1.4
	c0.2,0.5,0.6,0.9,1,1.3c0.4,0.4,0.8,0.8,1.3,1.1c0.5,0.3,0.9,0.5,1.5,0.8c0.5,0.2,1.1,0.3,1.6,0.5c0.6,0.1,1.1,0.2,1.7,0.2
	c2.3,0,4.4-0.9,6-2.6c0.4-0.4,0.8-0.8,1.1-1.3c0.3-0.4,0.6-0.9,0.8-1.4c0.3-0.5,0.4-1.1,0.5-1.6c0.1-0.5,0.2-1.1,0.2-1.6
	c0-0.6-0.1-1.1-0.2-1.7c-0.1-0.6-0.3-1.1-0.5-1.6c-0.2-0.5-0.5-1-0.8-1.4c-0.3-0.5-0.7-0.9-1.1-1.3c-2-2-4.9-2.9-7.7-2.3
	c-0.6,0.1-1.1,0.2-1.6,0.4c-0.5,0.3-0.9,0.5-1.5,0.8C351.8,231.6,351.4,231.9,351,232.3z"/>
<path class="st0" d="M161.5,301.3c-3.3,3.4-3.3,8.8,0,12.1c1.6,1.6,3.8,2.5,6.1,2.5c3.5,0,6.6-2.1,7.9-5.3c1.3-3.2,0.6-6.9-1.9-9.3
	C170.1,298.1,164.9,298.1,161.5,301.3z"/>
<path class="st0" d="M343.2,196.6c-0.6,0.1-1.1,0.2-1.6,0.5c-0.5,0.2-1,0.4-1.5,0.8c-0.5,0.3-0.9,0.6-1.3,1
	c-0.4,0.4-0.8,0.8-1.1,1.3c-0.3,0.5-0.6,1-0.8,1.5c-0.2,0.5-0.4,1-0.5,1.5c-0.1,0.6-0.2,1.1-0.2,1.7c0,2.3,0.9,4.5,2.6,6.1
	c0.4,0.4,0.8,0.7,1.3,1c0.4,0.3,0.9,0.6,1.5,0.8c0.5,0.3,1.1,0.4,1.6,0.5c0.5,0.1,1.1,0.2,1.6,0.2c0.6,0,1.1-0.1,1.7-0.2
	c0.5-0.1,1-0.3,1.5-0.5c0.5-0.2,1.1-0.4,1.5-0.8c0.4-0.3,0.9-0.7,1.3-1c0.4-0.4,0.7-0.8,1-1.3c0.3-0.5,0.6-1,0.8-1.5
	c0.2-0.5,0.4-1,0.5-1.5c0.2-1.1,0.2-2.3,0-3.4c-0.1-0.5-0.3-1.1-0.5-1.5c-0.2-0.5-0.4-1.1-0.8-1.5c-0.3-0.4-0.7-0.9-1-1.3
	C348.9,196.9,346,196,343.2,196.6z"/>
<path class="st0" d="M198.2,331.3c-0.3-0.5-0.5-1-0.8-1.5c-0.3-0.5-0.7-0.9-1.1-1.3c-0.8-0.8-1.7-1.5-2.7-1.9
	c-2.1-0.9-4.5-0.9-6.6,0c-1,0.4-2,1.1-2.7,1.9c-0.4,0.4-0.8,0.8-1.1,1.3c-0.3,0.4-0.5,0.9-0.8,1.5c-0.2,0.5-0.3,1-0.5,1.6
	c-0.1,0.5-0.2,1.1-0.2,1.6c0,2.3,0.9,4.5,2.6,6.1c0.8,0.8,1.7,1.4,2.7,1.9c1.1,0.4,2.2,0.6,3.3,0.6c1.1,0,2.2-0.2,3.2-0.6
	c1-0.4,1.9-1.1,2.7-1.9c1.6-1.6,2.5-3.8,2.6-6.1c0-0.5-0.1-1.1-0.2-1.6C198.6,332.3,198.4,331.8,198.2,331.3z"/>
<path class="st0" d="M316,183.7c1.6,1.6,3.7,2.6,6,2.6c0.6,0,1.1-0.1,1.7-0.2c0.6-0.1,1.1-0.3,1.6-0.5c0.5-0.2,1-0.4,1.5-0.8
	c0.4-0.3,0.9-0.7,1.3-1.1c0.8-0.8,1.4-1.7,1.9-2.7c1.2-3.2,0.5-6.8-1.9-9.3c-0.4-0.4-0.8-0.7-1.3-1c-0.5-0.3-0.9-0.6-1.5-0.9
	c-0.5-0.2-1.1-0.3-1.6-0.4c-3.1-0.7-6.3,0.5-8.3,2.9c-2,2.4-2.5,5.8-1.2,8.7C314.5,182,315.2,182.9,316,183.7z"/>
<path class="st0" d="M227.2,346.3c-3.4-3.2-8.6-3.2-12,0c-0.8,0.8-1.4,1.7-1.9,2.7c-0.4,1.1-0.6,2.2-0.6,3.3c0,1.1,0.2,2.2,0.6,3.2
	c0.4,1,1.1,2,1.9,2.7c1.6,1.6,3.7,2.6,6,2.6s4.4-0.9,6-2.6c0.8-0.8,1.4-1.7,1.9-2.7c0.4-1,0.7-2.1,0.7-3.2c0-1.1-0.2-2.3-0.7-3.3
	C228.6,348,228,347.1,227.2,346.3z"/>
<path class="st0" d="M286.5,167c0.4,0.3,0.9,0.5,1.5,0.8c0.5,0.2,1.1,0.3,1.6,0.4c0.5,0.1,1.1,0.2,1.6,0.2c0.6,0,1.2,0,1.7-0.2
	c0.6-0.1,1.1-0.2,1.6-0.4c0.5-0.3,0.9-0.5,1.5-0.8c0.5-0.3,0.9-0.7,1.3-1.1c3.3-3.3,3.3-8.7,0-12c-0.4-0.4-0.8-0.8-1.3-1.1
	c-0.5-0.3-1-0.5-1.5-0.8c-0.5-0.2-1.1-0.4-1.6-0.5c-1.1-0.2-2.2-0.2-3.3,0c-0.6,0.1-1.1,0.3-1.6,0.5c-0.5,0.3-1,0.5-1.5,0.8
	c-0.5,0.3-0.9,0.7-1.3,1.1c-1.6,1.6-2.6,3.7-2.6,6c0,2.3,0.9,4.4,2.6,6C285.6,166.4,286,166.7,286.5,167z"/>
<path class="st1" d="M469.5,273.2c9.4,0,17.1-7.6,17.1-17.1v-26.8c16.6-4.3,27.5-20.3,25.3-37.3c-2.2-17-16.7-29.8-33.9-29.8
	c-17.2,0-31.7,12.7-33.9,29.8c-2.2,17,8.7,33,25.3,37.3v26.8h-68.3c0.1-38.5-15.2-75.4-42.5-102.6c-5.4-5.3-11.1-10.2-17.2-14.6
	v-10.9H461c9.4,0,17.1-7.6,17.1-17.1V92.8c16.6-4.3,27.5-20.3,25.3-37.3c-2.2-17.1-16.7-29.8-33.9-29.8s-31.7,12.8-33.9,29.8
	s8.7,33.1,25.3,37.3v18.3H341.5c-9.4,0-17,7.6-17.1,17c-18.5-9.8-38.9-15.5-59.7-16.6V94h34.1c9.4,0,17.1-7.6,17.1-17.1v-9.7
	c16.6-4.3,27.5-20.3,25.3-37.3C339.1,12.8,324.6,0,307.4,0s-31.7,12.8-33.9,29.8s8.7,33.1,25.3,37.3v9.7h-34.1
	c-9.4,0-17.1,7.6-17.1,17.1v17.5c-11.6,0.6-23,2.6-34.1,5.9V51.3c0-9.4-7.6-17.1-17.1-17.1h-86.5C105.6,17.6,89.6,6.8,72.6,8.9
	c-17.1,2.2-29.8,16.7-29.8,33.9s12.8,31.7,29.8,33.9s33.1-8.7,37.3-25.3h86.5V124c-38,17.1-66.7,49.7-79,89.4H42.9v-43.9
	c16.6-4.3,27.5-20.3,25.3-37.4c-2.2-17.1-16.7-29.8-33.9-29.8c-17.2,0-31.7,12.8-33.9,29.8s8.7,33.1,25.3,37.4v43.9
	c0,9.4,7.6,17.1,17.1,17.1h70.6c-1.5,8.4-2.3,17-2.4,25.6H94.1c-9.4,0-17.1,7.6-17.1,17.1v119.5h-9.7c-4.3-16.6-20.3-27.5-37.3-25.3
	S0.1,384,0.1,401.2s12.8,31.7,29.8,33.9s33.1-8.7,37.3-25.3H77c9.4,0,17.1-7.6,17.1-17.1V273.2h18.2c5.9,50.5,37.9,94.2,84.2,115
	v81.2H144c-4.3-16.6-20.3-27.5-37.3-25.3S76.9,460.8,76.9,478s12.8,31.7,29.8,33.9c17.1,2.2,33.1-8.7,37.3-25.3h52.4
	c9.4,0,17.1-7.6,17.1-17.1v-74.6c11.1,3.3,22.6,5.3,34.1,6v17.5c0,9.4,7.6,17.1,17.1,17.1h59.7v9.7c-16.6,4.3-27.5,20.3-25.3,37.4
	s16.7,29.8,33.9,29.8s31.7-12.8,33.9-29.8s-8.7-33.1-25.3-37.4v-9.7c0-9.4-7.6-17.1-17.1-17.1h-59.7v-17.5c35.5-1.9,69-16.9,94-42.1
	c10.1-10.1,18.7-21.7,25.5-34.3h68.2v86.5c-16.6,4.3-27.5,20.3-25.3,37.4s16.7,29.8,33.9,29.8s31.7-12.8,33.9-29.8
	s-8.7-33.1-25.3-37.4v-86.5c0-9.4-7.6-17.1-17.1-17.1h-60.6c4.2-11,7-22.5,8.3-34.1L469.5,273.2L469.5,273.2z M461,196.4
	c0-9.4,7.6-17.1,17.1-17.1s17.1,7.6,17.1,17.1c0,9.4-7.6,17.1-17.1,17.1C468.6,213.5,461,205.8,461,196.4z M452.5,59.9
	c0-9.4,7.6-17.1,17.1-17.1s17.1,7.6,17.1,17.1s-7.6,17.1-17.1,17.1C460.1,76.9,452.5,69.3,452.5,59.9z M290.3,34.3
	c0-9.4,7.6-17.1,17.1-17.1s17.1,7.6,17.1,17.1s-7.6,17.1-17.1,17.1C298,51.3,290.3,43.7,290.3,34.3z M77,59.9
	c-9.4,0-17.1-7.6-17.1-17.1S67.6,25.7,77,25.7s17.1,7.6,17.1,17.1C94,52.2,86.4,59.8,77,59.9z M34.3,153.7
	c-9.4,0-17.1-7.6-17.1-17.1c0-9.4,7.6-17.1,17.1-17.1s17.1,7.6,17.1,17.1S43.8,153.7,34.3,153.7z M34.3,418.3
	c-9.4,0-17.1-7.6-17.1-17.1s7.6-17.1,17.1-17.1s17.1,7.6,17.1,17.1C51.4,410.6,43.7,418.2,34.3,418.3z M111.1,495.1
	c-9.4,0-17.1-7.6-17.1-17.1s7.6-17.1,17.1-17.1s17.1,7.6,17.1,17.1C128.2,487.4,120.5,495,111.1,495.1z M333,460.9
	c9.4,0,17.1,7.6,17.1,17.1c0,9.4-7.6,17.1-17.1,17.1s-17.1-7.6-17.1-17.1S323.6,460.9,333,460.9z M346.7,346.6
	c-43.2,43.2-110.8,49.8-161.6,15.9c-50.8-33.9-70.5-99-47.1-155.4s83.3-88.5,143.2-76.6s103,64.5,103,125.5
	C384.3,290.1,370.8,322.7,346.7,346.6z M461,426.8c9.4,0,17.1,7.6,17.1,17.1c0,9.4-7.6,17.1-17.1,17.1s-17.1-7.6-17.1-17.1
	S451.6,426.8,461,426.8z"/>
</svg>
