<?xml version="1.0" encoding="utf-8"?>
<!-- Generator: Adobe Illustrator 21.1.0, SVG Export Plug-In . SVG Version: 6.00 Build 0)  -->
<svg version="1.1" id="Capa_1" xmlns="http://www.w3.org/2000/svg" xmlns:xlink="http://www.w3.org/1999/xlink" x="0px" y="0px"
	 viewBox="0 0 480 480" style="enable-background:new 0 0 480 480;" xml:space="preserve">
<style type="text/css">
	.st0{fill:#0060F9;}
	.st1{fill:#FFFFFF;}
</style>
<path class="st0" d="M376,416h-80v-58.9c37.2-24.8,68.7-70.8,86.4-117.1h1.6c22.1,0,40-17.9,40-40v-80c0-22.1-17.9-40-40-40h-4.2
	C334.4,2.8,235.1-23,157.9,22.3c-23.8,14-43.7,33.9-57.7,57.7H96c-22.1,0-40,17.9-40,40v80c0,22.1,17.9,40,40,40h1.6
	c17.8,46.4,49.3,92.3,86.4,117.1V416h-80c-35.3,0-64,28.7-64,64h16c0-26.5,21.5-48,48-48h85.6c30.8,19.5,70,19.5,100.8,0H376
	c26.5,0,48,21.5,48,48h16C440,444.7,411.3,416.1,376,416z M240,16c48.3,0.3,93.5,24.2,120.9,64h-95l-46.3-23.2
	c-2.7-1.3-5.9-1-8.4,0.8L181.3,80h-62.3C146.5,40.3,191.7,16.4,240,16z M230.1,80H208l8.8-6.6L230.1,80z M96,224
	c-13.3,0-24-10.7-24-24v-80c0-13.3,10.7-24,24-24h288c13.3,0,24,10.7,24,24v80c0,13.3-10.7,24-24,24H96z M280,419.4
	c-24.6,14.7-55.4,14.7-80,0v-53.2c12.4,6.3,26.1,9.6,40,9.9c13.9-0.2,27.6-3.6,40-9.9V419.4z M240,360c-45.4,0-96.9-49.9-125.2-120
	h250.5C336.9,310.2,285.5,360,240,360z M277,288.6c-23.8,9.6-50.3,9.6-74.1,0l-5.9,14.9c27.6,11.1,58.4,11.1,85.9,0L277,288.6z
	 M88,128h16v64H88V128z M376,128h16v64h-16V128z"/>
<path class="st1" d="M182.7,168.3c-1.1-3.1-2.7-5.9-4.9-8.3c8.9-9.7,8.2-24.7-1.5-33.6c-2.4-2.2-5.2-3.9-8.3-4.9V112h-16v8
	c-4.4,0-8,3.6-8,8v64c0,4.4,3.6,8,8,8v8h16v-9.5C180.4,194.3,187,180.7,182.7,168.3z M160,184v-16c4.4,0,8,3.6,8,8
	S164.4,184,160,184z M160,152v-16c4.4,0,8,3.6,8,8S164.4,152,160,152z M342.7,168.3c-1.1-3.1-2.7-5.9-4.9-8.3
	c8.9-9.7,8.2-24.7-1.5-33.6c-2.4-2.2-5.2-3.9-8.3-4.9V112h-16v8c-4.4,0-8,3.6-8,8v64c0,4.4,3.6,8,8,8v8h16v-9.5
	C340.4,194.3,347,180.7,342.7,168.3z M320,184v-16c4.4,0,8,3.6,8,8S324.4,184,320,184z M320,152v-16c4.4,0,8,3.6,8,8
	S324.4,152,320,152z M32,16V0H16v16H0v16h16v16h16V32h16V16H32z M448,160h16v16h-16V160z M464,0h16v16h-16V0z M0,88h16v16H0V88z
	 M72,264h16v16H72V264z M464,256v-16h-16v16h-16v16h16v16h16v-16h16v-16H464z"/>
</svg>
