<?xml version="1.0" encoding="utf-8"?>
<!-- Generator: Adobe Illustrator 21.1.0, SVG Export Plug-In . SVG Version: 6.00 Build 0)  -->
<svg version="1.1" id="Layer_1" xmlns="http://www.w3.org/2000/svg" xmlns:xlink="http://www.w3.org/1999/xlink" x="0px" y="0px"
	 viewBox="0 0 432 432" style="enable-background:new 0 0 432 432;" xml:space="preserve">
<style type="text/css">
	.st0{fill:#0060F9;}
	.st1{fill:#FFFFFF;}
</style>
<path class="st0" d="M209,305.5c-0.2,0-0.4,0-0.6,0c-13-1.2-25.3-5.1-36.5-11.6c-3.3-1.9-4.4-6.1-2.5-9.3c1.9-3.3,6.1-4.3,9.3-2.5
	c9.5,5.5,19.9,8.8,30.9,9.8c3.7,0.3,6.5,3.6,6.2,7.4C215.5,302.9,212.5,305.5,209,305.5z M230.3,304.7c-3.3,0-6.1-2.3-6.7-5.7
	c-0.6-3.7,1.8-7.2,5.6-7.9c10.8-1.9,20.9-6,30-12.3c3.1-2.1,7.3-1.4,9.5,1.7s1.4,7.3-1.7,9.5c-10.7,7.5-22.6,12.4-35.5,14.6
	C231.1,304.7,230.7,304.7,230.3,304.7z M158.4,281.8c-1.8,0-3.5-0.7-4.8-2c-9.1-9.1-16.2-20.3-20.5-32.4c-1.3-3.5,0.6-7.4,4.1-8.7
	c3.6-1.3,7.5,0.6,8.7,4.1c3.7,10.2,9.7,19.7,17.4,27.4c2.7,2.7,2.6,7,0,9.6C161.9,281.1,160.2,281.8,158.4,281.8z M278.8,276.9
	c-1.6,0-3.1-0.5-4.4-1.6c-2.9-2.4-3.2-6.7-0.8-9.6c7-8.3,12.3-18.2,15.1-28.7c1-3.6,4.7-5.8,8.4-4.8c3.6,1,5.8,4.7,4.8,8.4
	c-3.4,12.4-9.5,24.1-17.8,33.9C282.7,276.1,280.8,276.9,278.8,276.9z M134.9,231.1c-3.5,0-6.5-2.7-6.8-6.3c-0.2-2.5-0.3-5-0.3-7.5
	c0-10.5,1.8-20.7,5.4-30.5c1.3-3.5,5.2-5.3,8.7-4.1c3.5,1.3,5.3,5.2,4.1,8.7c-3,8.2-4.5,16.9-4.5,25.8c0,2.2,0.1,4.3,0.3,6.4
	c0.3,3.8-2.5,7-6.2,7.3C135.3,231.1,135.1,231.1,134.9,231.1z M298.2,224.3c-3.8,0-6.8-2.9-6.8-6.6c0-0.1,0-0.6,0-0.7
	c0-10.7-2.4-21.3-7-31.3c-1.6-3.4-0.1-7.5,3.3-9.1c3.4-1.6,7.5-0.1,9.1,3.3c5.5,11.8,8.3,24.4,8.3,37.4
	C305,221.1,301.9,224.3,298.2,224.3z M149.5,177.1c-1.4,0-2.7-0.4-3.9-1.2c-3.1-2.2-3.8-6.4-1.6-9.5c7.4-10.5,17.2-19.4,28.3-25.8
	c3.2-1.9,7.4-0.8,9.3,2.5c1.9,3.3,0.8,7.4-2.5,9.3c-9.4,5.4-17.7,13-23.9,21.9C153.7,176.1,151.6,177.1,149.5,177.1z M279.1,171.6
	c-1.9,0-3.9-0.8-5.2-2.4c-7-8.3-15.9-15.2-25.7-19.8c-3.4-1.6-4.9-5.6-3.3-9.1c1.6-3.4,5.6-4.9,9.1-3.3
	c11.6,5.4,22.1,13.5,30.4,23.4c2.4,2.9,2,7.2-0.8,9.6C282.2,171.1,280.6,171.6,279.1,171.6z M195.3,145.1c-3,0-5.8-2-6.6-5.1
	c-1-3.6,1.2-7.4,4.8-8.3c7.4-2,15.1-3,22.8-3h0.1c5.1,0,10.3,0.5,15.3,1.3c3.7,0.7,6.2,4.2,5.5,7.9c-0.7,3.7-4.2,6.2-7.9,5.5
	c-4.3-0.8-8.6-1.1-13-1.1c0,0-0.1,0-0.1,0c-6.6,0-13.1,0.8-19.3,2.5C196.5,145,195.9,145.1,195.3,145.1z M216.4,271.8
	c-30.1,0-54.5-24.5-54.5-54.5c0-30.1,24.5-54.5,54.5-54.5s54.5,24.4,54.5,54.5C270.9,247.4,246.5,271.8,216.4,271.8z M216.4,176.4
	c-22.5,0-40.9,18.3-40.9,40.9s18.3,40.9,40.9,40.9s40.9-18.3,40.9-40.9S238.9,176.4,216.4,176.4z M200.4,190.1
	c0-0.5,0.3-0.8,0.8-0.8h19.4c11.1,0,16.5,5.6,16.5,14.4c0,6.4-3.1,10.2-7.3,11.9v0.2c3.7,1.1,8.3,5.3,8.3,12.7
	c0,10.2-6.5,15.6-17.9,15.6h-19c-0.5,0-0.8-0.3-0.8-0.8L200.4,190.1L200.4,190.1z M220.5,213.1c6,0,9.6-3.5,9.6-8.6
	c0-5.2-3.6-8.6-9.6-8.6h-12.4c-0.3,0-0.5,0.2-0.5,0.5v16.2c0,0.3,0.2,0.5,0.5,0.5L220.5,213.1L220.5,213.1z M208.1,237.7h12.8
	c6.5,0,10.1-3.6,10.1-9c0-5.4-3.6-9-10.1-9h-12.8c-0.3,0-0.5,0.2-0.5,0.5v17.1C207.6,237.5,207.8,237.7,208.1,237.7z M148.3,135.5
	H32.4c-3.8,0-6.8-3-6.8-6.8v-15.6c0-14.3,12.9-25.9,28.9-26.2l34.7-5.7c0.7-0.1,1.5-0.1,2.2,0l34.7,5.7c16,0.3,28.9,11.9,28.9,26.2
	v15.6C155.1,132.5,152,135.5,148.3,135.5z M39.3,121.9h102.2v-8.8c0-6.9-7.1-12.6-15.9-12.6c-0.4,0-0.7,0-1.1-0.1l-34.1-5.6
	l-34.1,5.6c-0.4,0.1-0.7,0.1-1.1,0.1c-8.7,0-15.9,5.6-15.9,12.6V121.9z M106.8,94.7H73.7c-11.1,0-20.1-9-20.1-20.1V44.4
	c0-19.7,16-35.8,35.8-35.8h1.8c19.7,0,35.8,16,35.8,35.8v30.2C126.9,85.7,117.9,94.7,106.8,94.7z M89.3,22.4
	c-12.2,0-22.1,9.9-22.1,22.1v30.2c0,3.5,2.9,6.4,6.4,6.4h33.1c3.5,0,6.4-2.9,6.4-6.4V44.4c0-12.2-9.9-22.1-22.1-22.1H89.3z
	 M407.2,374H291.3c-3.8,0-6.8-3-6.8-6.8v-15.6c0-14.3,12.9-25.9,28.9-26.2l34.7-5.7c0.7-0.1,1.5-0.1,2.2,0l34.7,5.7
	c16,0.3,28.9,11.9,28.9,26.2v15.6C414,371,410.9,374,407.2,374z M298.2,360.4h102.2v-8.8c0-6.9-7.1-12.6-15.9-12.6
	c-0.4,0-0.7,0-1.1-0.1l-34.1-5.6l-34.1,5.6c-0.4,0.1-0.7,0.1-1.1,0.1c-8.7,0-15.9,5.6-15.9,12.6V360.4z M365.7,333.2h-33.1
	c-11.1,0-20.1-9-20.1-20.1v-30.2c0-19.7,16-35.8,35.8-35.8h1.8c19.7,0,35.8,16,35.8,35.8V313C385.8,324.1,376.8,333.2,365.7,333.2z
	 M348.2,260.8c-12.2,0-22.1,9.9-22.1,22.1V313c0,3.5,2.9,6.4,6.4,6.4h33.1c3.5,0,6.4-2.9,6.4-6.4v-30.2c0-12.2-9.9-22.1-22.1-22.1
	H348.2z"/>
<path class="st1" d="M400.4,210.5h-13.6c0-90.5-67.7-166.2-157.6-176.1l1.5-13.5C327.4,31.5,400.4,113,400.4,210.5z M244.8,71.2
	l-31.5-47.3L261,0l6.1,12.2l-34,17l23,34.5L244.8,71.2z M209.6,401.3c-105.2,0-190.8-85.6-190.8-190.8h13.6
	c0,97.7,79.5,177.1,177.1,177.1V401.3z M191.4,432l-10.5-8.7l26.3-32L175,371.1l7.3-11.5l45.2,28.5L191.4,432z"/>
</svg>
