<?xml version="1.0" encoding="utf-8"?>
<!-- Generator: Adobe Illustrator 21.1.0, SVG Export Plug-In . SVG Version: 6.00 Build 0)  -->
<svg version="1.1" id="Capa_1" xmlns="http://www.w3.org/2000/svg" xmlns:xlink="http://www.w3.org/1999/xlink" x="0px" y="0px"
	 viewBox="0 0 480.2 480.2" style="enable-background:new 0 0 480.2 480.2;" xml:space="preserve">
<style type="text/css">
	.st0{fill:#0060F9;}
	.st1{fill:#FFFFFF;}
</style>
<path class="st0" d="M384.1,128.2h-14.5c-26-40.5-79.9-52.2-120.4-26.2c-0.9,0.6-1.7,1.1-2.6,1.7c8.7-47.8-23.1-93.6-70.9-102.3
	C127.9-7.2,82.1,24.5,73.4,72.3c-3.6,19.9-0.2,40.5,9.6,58.2c-16.1,5.5-26.9,20.6-26.9,37.6v272c0,22.1,17.9,40,40,40h288
	c22.1,0,40-17.9,40-40v-272C424.1,146.1,406.2,128.2,384.1,128.2z M296,104.1c25.7,0,49.5,13.7,62.4,36c6.3,10.9,9.7,23.4,9.7,36
	c0,8.2-1.4,16.3-4.1,24h-17.3c12-25.1,3.7-55.3-19.6-70.7c-18.8-12.2-43.1-12.2-61.9,0c-23.3,15.4-31.6,45.5-19.6,70.7h-17.3
	c-2.7-7.7-4.1-15.8-4.1-24C224,136.4,256.2,104.2,296,104.1z M329.6,197.6c-0.6,0.9-1.2,1.7-1.8,2.6h-63.5c-5.3-6.9-8.2-15.3-8.3-24
	c0-13.4,6.7-25.9,17.9-33.3c13.4-8.7,30.7-8.7,44.2,0C336.5,154.8,341.6,179.3,329.6,197.6z M160.1,16.2c39.8,0,72,32.2,72,72
	c0,39.8-32.2,72-72,72c-39.8,0-72-32.2-72-72C88.1,48.4,120.3,16.2,160.1,16.2z M72.1,168.2c0-11.9,8.8-21.9,20.5-23.6
	c29,34.8,79.7,41.9,117,16.3c-1,5.1-1.5,10.2-1.5,15.3c0,8.1,1.2,16.2,3.4,24H96.1c-13.3,0-24-10.7-24-24V168.2z M408.1,344.2h-136
	c-13.3,0-24-10.7-24-24s10.7-24,24-24h136V344.2z M408.1,280.2h-136c-22.1,0-40,17.9-40,40s17.9,40,40,40h136v80
	c0,13.3-10.7,24-24,24h-160v-0.1h-16v0.1h-24v-0.1h-16v0.1h-24v-0.1h-16v0.1h-32c-13.3,0-24-10.7-24-24V208c6.9,5.3,15.3,8.2,24,8.2
	h288c8.7,0,17.1-2.9,24-8.2V280.2z M408.1,176.2c0,13.3-10.7,24-24,24h-3.4c5.4-18.4,4.4-38.2-2.7-56h6.2c13.3,0,24,10.7,24,24
	V176.2z"/>
<path class="st1" d="M141.7,394.5l-21.7-21.7v-38.2c12.5-4.4,19-18.1,14.6-30.6c-4.4-12.5-18.1-19-30.6-14.6
	c-12.5,4.4-19,18.1-14.6,30.6c2.4,6.8,7.8,12.2,14.6,14.6v41.5c0,2.1,0.8,4.2,2.3,5.7l21.7,21.7v44.8h16v-48.1
	C144.1,398,143.2,396,141.7,394.5z M112.1,320.2c-4.4,0-8-3.6-8-8c0-4.4,3.6-8,8-8c4.4,0,8,3.6,8,8
	C120.1,316.6,116.5,320.2,112.1,320.2z M198.7,336.1c-4.4-12.5-18.1-19-30.6-14.6c-12.5,4.4-19,18.1-14.6,30.6
	c2.4,6.8,7.8,12.2,14.6,14.6v81.6h16v-81.6C196.6,362.3,203.1,348.6,198.7,336.1z M176.1,352.2c-4.4,0-8-3.6-8-8c0-4.4,3.6-8,8-8
	c4.4,0,8,3.6,8,8C184.1,348.6,180.5,352.2,176.1,352.2z M208.1,424.2v24.1h16v-20.1l26.7-20h14.8c4.4,12.5,18.1,19,30.6,14.6
	c12.5-4.4,19-18.1,14.6-30.6c-4.4-12.5-18.1-19-30.6-14.6c-6.8,2.4-12.2,7.8-14.6,14.6h-17.5c-1.7,0-3.4,0.6-4.8,1.6l-32,24
	C209.3,419.3,208.1,421.6,208.1,424.2z M288.1,392.2c4.4,0,8,3.6,8,8c0,4.4-3.6,8-8,8c-4.4,0-8-3.6-8-8
	C280.1,395.7,283.7,392.2,288.1,392.2z"/>
<path class="st0" d="M160.1,32.2c-30.9,0-56,25.1-56,56c0,30.9,25.1,56,56,56c30.9,0,56-25.1,56-56S191,32.2,160.1,32.2z
	 M160.1,128.2c-22.1,0-40-17.9-40-40c0-22.1,17.9-40,40-40c22.1,0,40,17.9,40,40S182.2,128.2,160.1,128.2z"/>
<path class="st1" d="M264.1,0.2h16v16h-16V0.2z M264.1,32.2h16v40h-16V32.2z M296.1,0.2h16v16h-16V0.2z M296.1,32.2h16v40h-16V32.2z
	"/>
</svg>
